<svg xmlns="http://www.w3.org/2000/svg" width="105.5" height="26.649999618530273" style=""><rect id="backgroundrect" width="100%" height="100%" x="0" y="0" fill="none" stroke="none"/><defs><marker xmlns:inkscape="http://www.inkscape.org/namespaces/inkscape" id="Arrow1Lstart" refX="0" refY="0" orient="auto" inkscape:stockid="Arrow1Lstart" overflow="visible">
            <path transform="scale(0.800000011920929) translate(12.5,0) " d="M0 0l5-5-17.5 5 17.5 5-5-5z" fill-rule="evenodd" stroke="#000" stroke-width="1pt" style="fill: none; stroke: none; stroke-dasharray: none;" id="svg_7"/>
        </marker></defs><g class="currentLayer" style=""><title>Layer 1</title><path class="cls-1" d="M2.13.27A.73.73,0,0,0,1.66,0a.63.63,0,0,0-.44.18l-1,.93A.64.64,0,0,0,0,1.58V13.83a.61.61,0,0,0,.21.46l1,.89a.51.51,0,0,0,.39.17.7.7,0,0,0,.5-.24L9.34,8.37V7Z" id="svg_1" fill-opacity="1" fill="#f28c00" marker-start=""/><path class="cls-1" d="M94.5,4.91a10.87,10.87,0,1,0,11,10.89A10.81,10.81,0,0,0,94.5,4.91Zm0,16.57A5.43,5.43,0,0,1,89,15.8a5.47,5.47,0,1,1,10.92,0A5.43,5.43,0,0,1,94.5,21.48Z" id="svg_2" fill-opacity="1" fill="#cccccc" marker-start=""/><path class="cls-1" d="M37.55,4.91c-6.27,0-10.62,4.84-10.62,10.87A10.47,10.47,0,0,0,37.55,26.61c3.94,0,7.11-1.46,9.05-4a.25.25,0,0,0,0-.34l-2.89-2.67a.25.25,0,0,0-.35,0A6.56,6.56,0,0,1,38.15,22a5.73,5.73,0,0,1-5.91-4.68h15.2a.15.15,0,0,0,.15-.14c0-.32,0-.69,0-1.05C47.62,9.59,43.92,4.91,37.55,4.91ZM32.28,14a5.42,5.42,0,0,1,5.27-4.68c3.55,0,4.8,2.28,5,4.68Z" id="svg_3" fill-opacity="1" fill="#cccccc" marker-start=""/><path class="cls-1" d="M60.87,9.75a5.62,5.62,0,0,1,4.57,2.41.14.14,0,0,0,.21,0L69,9.09a10,10,0,0,0-8.09-4.18A11.09,11.09,0,0,0,49.54,15.78,11.08,11.08,0,0,0,60.87,26.61a9.93,9.93,0,0,0,8-4.22L65.65,19.3a.15.15,0,0,0-.22,0,5.52,5.52,0,0,1-4.56,2.45,6,6,0,1,1,0-12Z" id="svg_4" fill-opacity="1" fill="#cccccc" marker-start=""/><path class="cls-1" d="M83.35,4.92H78.16c-1.29,0-1.82-.1-2.61.64L71.73,9.09c-.89.82-.86,1-.86,3.4V26.61h5.44V10.47a.57.57,0,0,1,.1-.37,1.21,1.21,0,0,0,.16-.16.55.55,0,0,1,.38-.1h6.4a.15.15,0,0,0,.15-.15V5.06A.15.15,0,0,0,83.35,4.92Z" id="svg_5" fill-opacity="1" fill="#cccccc" marker-start=""/><path class="cls-1" d="M25.8,21.79H19.37a.64.64,0,0,1-.64-.63V16.83h0V10.48a.65.65,0,0,1,.64-.64H25.8A.15.15,0,0,0,26,9.69V5a.15.15,0,0,0-.15-.15H17.73V3.06a.14.14,0,0,0-.14-.14h-4.3V13.64h0V19c0,2.4,0,2.57.86,3.39L18,26c.79.73,1.32.64,2.61.64H25.8a.15.15,0,0,0,.15-.15V21.94A.15.15,0,0,0,25.8,21.79Z" id="svg_6" fill-opacity="1" fill="#cccccc" marker-start=""/></g></svg>