<?xml version="1.0" encoding="utf-8"?>

<!DOCTYPE svg PUBLIC "-//W3C//DTD SVG 1.1//EN" "http://www.w3.org/Graphics/SVG/1.1/DTD/svg11.dtd">
<!-- Uploaded to: SVG Repo, www.svgrepo.com, Generator: SVG Repo Mixer Tools -->
<svg height="800px" width="800px" version="1.1" id="_x32_" xmlns="http://www.w3.org/2000/svg" xmlns:xlink="http://www.w3.org/1999/xlink" 
	 viewBox="0 0 512 512"  xml:space="preserve">
<style type="text/css">
	.st0{fill:#ccc;}
</style>
<g>
	<path class="st0" d="M130.344,129.778c-27.425,17.786-32.812,73.384-22.459,118.698c8.064,35.288,25.208,82.623,54.117,127.198
		c27.196,41.933,65.138,79.532,94.069,101.286c37.151,27.934,90.112,45.688,117.537,27.902c13.868-8.994,34.47-33.567,35.41-37.976
		c0,0-12.082-18.629-14.733-22.716l-40.516-62.47c-3.011-4.642-21.892-0.399-31.484,5.034
		c-12.938,7.331-24.854,27.001-24.854,27.001c-8.872,5.125-16.302,0.019-31.828-7.126c-19.081-8.779-40.535-36.058-57.609-60.765
		c-15.595-25.666-31.753-56.38-31.988-77.382c-0.192-17.09-1.824-25.957,6.473-31.967c0,0,22.82-2.858,34.79-11.681
		c8.872-6.542,20.447-22.051,17.436-26.693l-40.515-62.47c-2.651-4.088-14.733-22.716-14.733-22.716
		C175.05,111.994,144.211,120.784,130.344,129.778z"/>
	<path class="st0" d="M360.036,176.391c16.488-67.201-22.687-135.921-88.913-155.97L276.715,0
		c77.488,23.14,123.308,103.517,103.742,181.983L360.036,176.391z"/>
	<path class="st0" d="M315.781,164.273c9.845-42.802-14.93-86.262-56.776-99.596l5.594-20.428
		c53.106,16.435,84.524,71.548,71.61,125.618L315.781,164.273z"/>
	<path class="st0" d="M271.466,152.138c3.288-18.373-7.111-36.616-24.596-43.147l5.605-20.468
		c28.724,9.694,45.751,39.564,39.459,69.22L271.466,152.138z"/>
</g>
</svg>