<?xml version="1.0" ?>

<!DOCTYPE svg  PUBLIC '-//W3C//DTD SVG 1.1//EN'  'http://www.w3.org/Graphics/SVG/1.1/DTD/svg11.dtd'>

<!-- Uploaded to: SVG Repo, www.svgrepo.com, Generator: SVG Repo Mixer Tools -->
<svg fill="#fff" width="800px" height="800px" viewBox="0 0 512 512" version="1.1" xml:space="preserve" xmlns="http://www.w3.org/2000/svg" xmlns:xlink="http://www.w3.org/1999/xlink">

<g id="_x37_19_x2C__capability_x2C__head_x2C__human_x2C__knowledge_x2C__skill">

<g>

<path d="M367.646,166.561c-24.544-14.711-50.985-25.707-78.732-32.791    c-26.188-6.661-53.227-9.808-80.52-9.609h-0.396h-0.935h-0.453l-0.907,0.028l-1.332,0.03h-0.539l-0.821,0.027    c-23.921,10.77-44.157,28.285-58.328,50.079c-13.831,21.285-21.88,46.708-21.88,74.029c0,4.563,0.198,8.954,0.625,13.206    c0.397,4.309,1.048,8.645,1.899,12.952c0.142,0.709,0.084,1.502-0.284,2.211l-26.188,54.869c3.911,2.75,7.738,4.989,11.479,6.831    c4.42,2.153,8.814,3.77,13.122,4.932c1.474,0.396,2.55,1.756,2.55,3.372c0,37.185,2.126,56.031,11.394,64.646    c9.07,8.446,26.386,7.879,56.429,6.009l0.453-0.028c1.927,0,3.487,1.56,3.487,3.486v65.158l152.251-3.146l0.793-132.498    c-0.028-0.964,0.313-1.954,1.077-2.663c13.519-12.668,24.46-28.031,31.912-45.232c7.172-16.553,11.167-34.861,11.167-54.104    c0-15.788-2.691-30.923-7.623-44.979C382.696,190.027,375.979,177.642,367.646,166.561 M298.747,76.604    c-25.563-6.547-52.63-8.049-81.255-4.194l-6.15,22.985l-0.028,0.084v0.084l-5.81,21.682h0.793l0.539-0.027h0.851h0.509h0.879    h0.482c27.093-0.143,53.509,2.664,79.101,8.928c27.039,6.632,53.141,17.063,78.14,31.828c0.367-0.114,0.765-0.198,1.161-0.17    c1.586-6.661,2.778-13.15,3.939-19.585c1.416-7.622,2.806-15.247,4.788-23.099C350.896,96.074,324.879,83.49,298.747,76.604z     M211.369,68.384l0.03-0.056l0,0l0.028-0.057v-0.058l0.028-0.028v-0.027v-0.029l0.028-0.027v-0.057h0.028v-0.058v-0.028    l0.028-0.027v-0.029l0.028-0.027v-0.029l0.03-0.057l0,0l0.028-0.028v-0.028l0.028-0.056l0,0l0.028-0.03v-0.027l0.028-0.028v-0.028    l0.028-0.027l0.03-0.029v-0.029l0.028-0.027V67.42l0.028-0.027l0.028-0.028v-0.028l0.028-0.027l0.028-0.03V67.25l0.028-0.027h0.03    l0.028-0.057l0,0l0.028-0.057l0.056-0.058l0,0l0.028-0.028l0,0l0.028-0.056h0.03l0.028-0.058l0,0l0.028-0.028l0.028-0.028    l0.028-0.027h0.028l0.03-0.029V66.77l0.028-0.028h0.028l0.028-0.03l0.028-0.027l0.028-0.028v-0.028h0.028l0.03-0.027l0.028-0.028    l0.028-0.03h0.028l0.028-0.027l0,0l0.058-0.057l0.056-0.027l0,0l0.056-0.029l0,0l0.056-0.027l0.03-0.059h0.028l0.028-0.027h0.028    l0.028-0.028h0.028l0.028-0.028h0.03l0.028-0.027h0.028l0.028-0.028h0.028l0.028-0.03h0.03l0.028-0.027l0.056-0.028h0.028    l0.056-0.028l0,0l0.058-0.028l0,0h0.056l0.028-0.028h0.028h0.028l0.03-0.029h0.028h0.028l0.028-0.028h0.056h0.03l0.028-0.028    h0.028h0.028l0.028-0.027h0.028h0.058h0.028l0.028-0.028h0.028h0.028h0.028h0.03l0.056-0.028h0.028h0.056h0.086l0.992-0.17    c28.086-4.252,56.003-3.26,83.721,3.854L300.986,70l2.607,0.709c28.002,7.623,54.303,21.143,78.988,40.159    c0.254,0.142,0.48,0.341,0.65,0.567l0.03,0.027l0.056,0.059l0,0l0.199,0.254v0.027l0.027,0.029l0.028,0.029    c0.171,0.254,0.284,0.537,0.368,0.821h0.029c0.197,0.623,0.228,1.304,0.027,1.954c-1.104,4.168-1.813,7.994-2.521,11.82    l-0.737,4.023l30.921-19.697l-98.6-76.637L189.377,51.21l17.572,33.727L211.369,68.384z M240.958,218.708    c-8.644-6.829-17.004-12.329-24.544-16.21c-12.611-6.547-22.389-8.646-26.328-4.705c-3.939,3.939-1.843,13.717,4.705,26.328    c3.883,7.511,9.409,15.872,16.21,24.544c4.394-5.185,9.212-10.4,14.37-15.56C230.558,227.919,235.772,223.102,240.958,218.708z     M251.955,289.592c8.644,6.829,17.005,12.328,24.516,16.24c12.611,6.547,22.418,8.615,26.33,4.676    c3.938-3.939,1.87-13.719-4.677-26.33c-3.911-7.51-9.409-15.871-16.24-24.516c-4.393,5.159-9.183,10.402-14.37,15.56    C262.356,280.408,257.142,285.197,251.955,289.592z M230.303,270.291c5.355,5.385,10.797,10.344,16.154,14.85    c5.355-4.506,10.769-9.465,16.154-14.85c5.357-5.357,10.316-10.771,14.822-16.127c-4.506-5.357-9.465-10.799-14.822-16.156    c-5.386-5.355-10.799-10.344-16.154-14.822c-5.357,4.479-10.798,9.467-16.154,14.822c-5.357,5.357-10.346,10.799-14.824,16.156    C219.957,259.492,224.917,264.934,230.303,270.291z M251.955,218.708c5.187,4.394,10.401,9.211,15.559,14.37    c5.188,5.158,9.978,10.402,14.37,15.587c6.831-8.672,12.329-17.033,16.24-24.544c6.461-12.441,8.588-22.162,4.818-26.188    l-0.142-0.141c-3.912-3.941-13.719-1.842-26.33,4.705C268.96,206.379,260.599,211.879,251.955,218.708z M206.495,254.164    c-7.539-9.438-13.603-18.621-17.883-26.868c-7.993-15.39-9.777-28.087-3.458-34.436c6.349-6.32,19.046-4.562,34.463,3.459    c8.247,4.28,17.402,10.345,26.84,17.854c9.438-7.51,18.592-13.574,26.839-17.854c15.419-8.021,28.114-9.779,34.436-3.459    l0.226,0.257c6.066,6.404,4.225,18.988-3.654,34.207c-4.28,8.219-10.374,17.401-17.885,26.84    c7.511,9.438,13.604,18.592,17.885,26.84c7.991,15.389,9.749,28.086,3.429,34.406c-6.321,6.377-19.017,4.591-34.436-3.4    c-8.247-4.308-17.401-10.374-26.839-17.885c-9.438,7.511-18.593,13.577-26.84,17.885c-15.417,7.991-28.115,9.777-34.463,3.429    c-6.319-6.32-4.534-19.046,3.458-34.435C192.864,272.756,198.956,263.602,206.495,254.164z M225.371,275.222    c-5.157-5.157-9.976-10.4-14.37-15.587c-6.802,8.672-12.299,17.033-16.21,24.571c-6.547,12.583-8.644,22.362-4.705,26.302    s13.717,1.871,26.328-4.676c7.54-3.912,15.872-9.411,24.544-16.24C235.772,285.197,230.558,280.408,225.371,275.222z     M320.004,242.375c0.311-0.313,0.51-0.766,0.51-1.248c0-0.453-0.199-0.907-0.51-1.22c-0.313-0.311-0.765-0.509-1.248-0.509    c-0.452,0-0.906,0.198-1.219,0.509c-0.311,0.313-0.51,0.737-0.51,1.22s0.199,0.936,0.51,1.219c0.313,0.311,0.767,0.51,1.219,0.51    C319.268,242.855,319.691,242.686,320.004,242.375z M327.457,241.127c0,2.381-0.964,4.563-2.551,6.15    c-1.588,1.586-3.74,2.549-6.15,2.549c-2.381,0-4.562-0.963-6.15-2.549c-1.558-1.559-2.521-3.741-2.521-6.15    c0-2.381,0.964-4.563,2.521-6.123c1.617-1.586,3.77-2.577,6.15-2.577c2.41,0,4.593,0.991,6.15,2.55    C326.493,236.564,327.457,238.746,327.457,241.127z M172.003,264.68c-0.765,0.736-1.218,1.756-1.218,2.918    c0,1.077,0.397,2.068,1.048,2.777l0.17,0.143c0.737,0.765,1.786,1.217,2.919,1.217c1.134,0,2.182-0.452,2.918-1.217    c0.737-0.737,1.219-1.787,1.219-2.92c0-1.135-0.482-2.182-1.219-2.918c-0.737-0.766-1.785-1.221-2.918-1.221    C173.76,263.459,172.74,263.914,172.003,264.68z M163.812,267.598c0-3.061,1.248-5.811,3.26-7.821    c2.041-2.041,4.789-3.288,7.851-3.288c3.061,0,5.838,1.247,7.851,3.258c2.011,2.014,3.258,4.791,3.258,7.852    c0,3.062-1.248,5.867-3.258,7.85c-2.013,2.014-4.791,3.261-7.851,3.261c-3.062,0-5.838-1.247-7.851-3.261l-0.226-0.254    C164.976,273.209,163.812,270.518,163.812,267.598z M255.752,244.867c-2.379-2.381-5.667-3.854-9.295-3.854    c-3.657,0-6.943,1.474-9.296,3.827c-2.381,2.381-3.854,5.668-3.854,9.324c0,3.627,1.472,6.916,3.854,9.295    c2.381,2.354,5.668,3.828,9.296,3.828c3.627,0,6.916-1.446,9.295-3.828c2.381-2.379,3.827-5.668,3.827-9.295    C259.579,250.508,258.133,247.221,255.752,244.867z M246.457,234.041c5.526,0,10.543,2.268,14.199,5.896    c3.655,3.654,5.895,8.672,5.895,14.227c0,5.526-2.239,10.543-5.895,14.198c-3.656,3.657-8.673,5.896-14.199,5.896    c-5.555,0-10.6-2.238-14.228-5.896c-3.628-3.627-5.896-8.644-5.896-14.198s2.267-10.572,5.896-14.199    C235.885,236.28,240.93,234.041,246.457,234.041z M257.652,176.252c1.502-1.162,3.711-0.906,4.875,0.625    c1.161,1.502,0.877,3.713-0.625,4.875l-13.122,10.117c-0.623,0.566-1.446,0.907-2.324,0.907c-0.907,0-1.728-0.341-2.353-0.907    l-13.094-10.117c-1.53-1.162-1.813-3.373-0.623-4.875c1.162-1.531,3.345-1.787,4.875-0.625l7.709,5.952v-42.002    c0-1.927,1.56-3.486,3.486-3.486c1.927,0,3.485,1.56,3.485,3.486v42.002L257.652,176.252z M261.902,326.067    c1.502,1.161,1.786,3.372,0.625,4.874c-1.164,1.502-3.373,1.785-4.875,0.623l-7.71-5.951v42.003c0,1.927-1.559,3.485-3.485,3.485    c-1.926,0-3.486-1.559-3.486-3.485v-42.003l-7.709,5.951c-1.53,1.162-3.713,0.879-4.875-0.623    c-1.189-1.502-0.907-3.713,0.623-4.874l13.094-10.118c0.625-0.566,1.446-0.907,2.353-0.907c0.877,0,1.701,0.341,2.324,0.907    L261.902,326.067z M222.338,474.406c-1.899,0.028-3.487-1.502-3.515-3.4c-0.056-1.898,1.474-3.515,3.373-3.543l98.941-1.956    c1.898-0.028,3.485,1.474,3.513,3.402c0.059,1.898-1.473,3.485-3.373,3.543L222.338,474.406z M222.338,451.848    c-1.899,0.028-3.487-1.474-3.515-3.402c-0.056-1.898,1.474-3.485,3.373-3.543l98.941-1.955c1.898-0.027,3.485,1.502,3.513,3.401    c0.059,1.927-1.473,3.515-3.373,3.542L222.338,451.848z M323.518,32.191c-1.502-1.189-1.757-3.372-0.567-4.874    c1.191-1.502,3.372-1.757,4.875-0.567l84.006,66.291c1.502,1.19,1.758,3.373,0.566,4.875c-1.162,1.502-3.345,1.757-4.847,0.566    L323.518,32.191z" style="fill-rule:evenodd;clip-rule:evenodd;"/>

</g>

</g>

<g id="Layer_1"/>

</svg>